<!--
  Icon sprite, built from Tabler Icons 3.48.0 (https://tabler.io/icons).

  MIT License, Copyright (c) 2020-2026 Pawel Kuna. The full licence text is in
  docs/THIRD-PARTY.md. Paths are the upstream ones, unmodified; only the stroke
  attributes were hoisted onto each symbol.

  Inlined into every page rather than referenced as an external file, because
  cross-document <use href="sprite.svg#id"> does not work in every browser and
  the whole point of this engine is that it works without JavaScript.

  To add an icon: take the file from the Tabler outline set and paste its shape
  elements into a new symbol here. Do not draw one by hand.
-->
<svg xmlns="http://www.w3.org/2000/svg" style="display:none" aria-hidden="true">
  <symbol id="i-search" viewBox="0 0 24 24" fill="none" stroke="currentColor" stroke-width="1.75" stroke-linecap="round" stroke-linejoin="round">
    <path stroke="none" d="M0 0h24v24H0z" fill="none" />
    <path d="M3 10a7 7 0 1 0 14 0a7 7 0 1 0 -14 0" />
    <path d="M21 21l-6 -6" />
  </symbol>
  <symbol id="i-plus" viewBox="0 0 24 24" fill="none" stroke="currentColor" stroke-width="1.75" stroke-linecap="round" stroke-linejoin="round">
    <path stroke="none" d="M0 0h24v24H0z" fill="none" />
    <path d="M12 5l0 14" />
    <path d="M5 12l14 0" />
  </symbol>
  <symbol id="i-shield-lock" viewBox="0 0 24 24" fill="none" stroke="currentColor" stroke-width="1.75" stroke-linecap="round" stroke-linejoin="round">
    <path stroke="none" d="M0 0h24v24H0z" fill="none" />
    <path d="M12 3a12 12 0 0 0 8.5 3a12 12 0 0 1 -8.5 15a12 12 0 0 1 -8.5 -15a12 12 0 0 0 8.5 -3" />
    <path d="M11 11a1 1 0 1 0 2 0a1 1 0 1 0 -2 0" />
    <path d="M12 12l0 2.5" />
  </symbol>
  <symbol id="i-info-circle" viewBox="0 0 24 24" fill="none" stroke="currentColor" stroke-width="1.75" stroke-linecap="round" stroke-linejoin="round">
    <path stroke="none" d="M0 0h24v24H0z" fill="none" />
    <path d="M3 12a9 9 0 1 0 18 0a9 9 0 0 0 -18 0" />
    <path d="M12 9h.01" />
    <path d="M11 12h1v4h1" />
  </symbol>
  <symbol id="i-user" viewBox="0 0 24 24" fill="none" stroke="currentColor" stroke-width="1.75" stroke-linecap="round" stroke-linejoin="round">
    <path stroke="none" d="M0 0h24v24H0z" fill="none" />
    <path d="M8 7a4 4 0 1 0 8 0a4 4 0 0 0 -8 0" />
    <path d="M6 21v-2a4 4 0 0 1 4 -4h4a4 4 0 0 1 4 4v2" />
  </symbol>
  <symbol id="i-logout" viewBox="0 0 24 24" fill="none" stroke="currentColor" stroke-width="1.75" stroke-linecap="round" stroke-linejoin="round">
    <path stroke="none" d="M0 0h24v24H0z" fill="none" />
    <path d="M14 8v-2a2 2 0 0 0 -2 -2h-7a2 2 0 0 0 -2 2v12a2 2 0 0 0 2 2h7a2 2 0 0 0 2 -2v-2" />
    <path d="M9 12h12l-3 -3" />
    <path d="M18 15l3 -3" />
  </symbol>
  <symbol id="i-sun" viewBox="0 0 24 24" fill="none" stroke="currentColor" stroke-width="1.75" stroke-linecap="round" stroke-linejoin="round">
    <path stroke="none" d="M0 0h24v24H0z" fill="none" />
    <path d="M8 12a4 4 0 1 0 8 0a4 4 0 1 0 -8 0" />
    <path d="M3 12h1m8 -9v1m8 8h1m-9 8v1m-6.4 -15.4l.7 .7m12.1 -.7l-.7 .7m0 11.4l.7 .7m-12.1 -.7l-.7 .7" />
  </symbol>
  <symbol id="i-moon" viewBox="0 0 24 24" fill="none" stroke="currentColor" stroke-width="1.75" stroke-linecap="round" stroke-linejoin="round">
    <path stroke="none" d="M0 0h24v24H0z" fill="none" />
    <path d="M12 3c.132 0 .263 0 .393 0a7.5 7.5 0 0 0 7.92 12.446a9 9 0 1 1 -8.313 -12.454l0 .008" />
  </symbol>
  <symbol id="i-world" viewBox="0 0 24 24" fill="none" stroke="currentColor" stroke-width="1.75" stroke-linecap="round" stroke-linejoin="round">
    <path stroke="none" d="M0 0h24v24H0z" fill="none" />
    <path d="M3 12a9 9 0 1 0 18 0a9 9 0 0 0 -18 0" />
    <path d="M3.6 9h16.8" />
    <path d="M3.6 15h16.8" />
    <path d="M11.5 3a17 17 0 0 0 0 18" />
    <path d="M12.5 3a17 17 0 0 1 0 18" />
  </symbol>
  <symbol id="i-history" viewBox="0 0 24 24" fill="none" stroke="currentColor" stroke-width="1.75" stroke-linecap="round" stroke-linejoin="round">
    <path stroke="none" d="M0 0h24v24H0z" fill="none" />
    <path d="M12 8l0 4l2 2" />
    <path d="M3.05 11a9 9 0 1 1 .5 4m-.5 5v-5h5" />
  </symbol>
  <symbol id="i-pencil" viewBox="0 0 24 24" fill="none" stroke="currentColor" stroke-width="1.75" stroke-linecap="round" stroke-linejoin="round">
    <path stroke="none" d="M0 0h24v24H0z" fill="none" />
    <path d="M4 20h4l10.5 -10.5a2.828 2.828 0 1 0 -4 -4l-10.5 10.5v4" />
    <path d="M13.5 6.5l4 4" />
  </symbol>
  <symbol id="i-lock" viewBox="0 0 24 24" fill="none" stroke="currentColor" stroke-width="1.75" stroke-linecap="round" stroke-linejoin="round">
    <path stroke="none" d="M0 0h24v24H0z" fill="none" />
    <path d="M5 13a2 2 0 0 1 2 -2h10a2 2 0 0 1 2 2v6a2 2 0 0 1 -2 2h-10a2 2 0 0 1 -2 -2v-6" />
    <path d="M11 16a1 1 0 1 0 2 0a1 1 0 0 0 -2 0" />
    <path d="M8 11v-4a4 4 0 1 1 8 0v4" />
  </symbol>
  <symbol id="i-lock-open" viewBox="0 0 24 24" fill="none" stroke="currentColor" stroke-width="1.75" stroke-linecap="round" stroke-linejoin="round">
    <path stroke="none" d="M0 0h24v24H0z" fill="none" />
    <path d="M5 13a2 2 0 0 1 2 -2h10a2 2 0 0 1 2 2v6a2 2 0 0 1 -2 2h-10a2 2 0 0 1 -2 -2l0 -6" />
    <path d="M11 16a1 1 0 1 0 2 0a1 1 0 1 0 -2 0" />
    <path d="M8 11v-5a4 4 0 0 1 8 0" />
  </symbol>
  <symbol id="i-archive" viewBox="0 0 24 24" fill="none" stroke="currentColor" stroke-width="1.75" stroke-linecap="round" stroke-linejoin="round">
    <path stroke="none" d="M0 0h24v24H0z" fill="none" />
    <path d="M3 6a2 2 0 0 1 2 -2h14a2 2 0 0 1 2 2a2 2 0 0 1 -2 2h-14a2 2 0 0 1 -2 -2" />
    <path d="M5 8v10a2 2 0 0 0 2 2h10a2 2 0 0 0 2 -2v-10" />
    <path d="M10 12l4 0" />
  </symbol>
  <symbol id="i-archive-off" viewBox="0 0 24 24" fill="none" stroke="currentColor" stroke-width="1.75" stroke-linecap="round" stroke-linejoin="round">
    <path stroke="none" d="M0 0h24v24H0z" fill="none" />
    <path d="M8 4h11a2 2 0 1 1 0 4h-7m-4 0h-3a2 2 0 0 1 -.826 -3.822" />
    <path d="M5 8v10a2 2 0 0 0 2 2h10a2 2 0 0 0 1.824 -1.18m.176 -3.82v-7" />
    <path d="M10 12h2" />
    <path d="M3 3l18 18" />
  </symbol>
  <symbol id="i-check" viewBox="0 0 24 24" fill="none" stroke="currentColor" stroke-width="1.75" stroke-linecap="round" stroke-linejoin="round">
    <path stroke="none" d="M0 0h24v24H0z" fill="none" />
    <path d="M5 12l5 5l10 -10" />
  </symbol>
  <symbol id="i-x" viewBox="0 0 24 24" fill="none" stroke="currentColor" stroke-width="1.75" stroke-linecap="round" stroke-linejoin="round">
    <path stroke="none" d="M0 0h24v24H0z" fill="none" />
    <path d="M18 6l-12 12" />
    <path d="M6 6l12 12" />
  </symbol>
  <symbol id="i-menu-2" viewBox="0 0 24 24" fill="none" stroke="currentColor" stroke-width="1.75" stroke-linecap="round" stroke-linejoin="round">
    <path stroke="none" d="M0 0h24v24H0z" fill="none" />
    <path d="M4 6l16 0" />
    <path d="M4 12l16 0" />
    <path d="M4 18l16 0" />
  </symbol>
  <symbol id="i-chevron-down" viewBox="0 0 24 24" fill="none" stroke="currentColor" stroke-width="1.75" stroke-linecap="round" stroke-linejoin="round">
    <path stroke="none" d="M0 0h24v24H0z" fill="none" />
    <path d="M6 9l6 6l6 -6" />
  </symbol>
  <symbol id="i-alert-triangle" viewBox="0 0 24 24" fill="none" stroke="currentColor" stroke-width="1.75" stroke-linecap="round" stroke-linejoin="round">
    <path stroke="none" d="M0 0h24v24H0z" fill="none" />
    <path d="M12 9v4" />
    <path d="M10.363 3.591l-8.106 13.534a1.914 1.914 0 0 0 1.636 2.871h16.214a1.914 1.914 0 0 0 1.636 -2.87l-8.106 -13.536a1.914 1.914 0 0 0 -3.274 0" />
    <path d="M12 16h.01" />
  </symbol>
  <symbol id="i-eye" viewBox="0 0 24 24" fill="none" stroke="currentColor" stroke-width="1.75" stroke-linecap="round" stroke-linejoin="round">
    <path stroke="none" d="M0 0h24v24H0z" fill="none" />
    <path d="M10 12a2 2 0 1 0 4 0a2 2 0 0 0 -4 0" />
    <path d="M21 12c-2.4 4 -5.4 6 -9 6c-3.6 0 -6.6 -2 -9 -6c2.4 -4 5.4 -6 9 -6c3.6 0 6.6 2 9 6" />
  </symbol>
  <symbol id="i-photo" viewBox="0 0 24 24" fill="none" stroke="currentColor" stroke-width="1.75" stroke-linecap="round" stroke-linejoin="round">
    <path stroke="none" d="M0 0h24v24H0z" fill="none" />
    <path d="M15 8h.01" />
    <path d="M3 6a3 3 0 0 1 3 -3h12a3 3 0 0 1 3 3v12a3 3 0 0 1 -3 3h-12a3 3 0 0 1 -3 -3v-12" />
    <path d="M3 16l5 -5c.928 -.893 2.072 -.893 3 0l5 5" />
    <path d="M14 14l1 -1c.928 -.893 2.072 -.893 3 0l3 3" />
  </symbol>
  <symbol id="i-mood-smile" viewBox="0 0 24 24" fill="none" stroke="currentColor" stroke-width="1.75" stroke-linecap="round" stroke-linejoin="round">
    <path stroke="none" d="M0 0h24v24H0z" fill="none" />
    <path d="M3 12a9 9 0 1 0 18 0a9 9 0 1 0 -18 0" />
    <path d="M9 10l.01 0" />
    <path d="M15 10l.01 0" />
    <path d="M9.5 15a3.5 3.5 0 0 0 5 0" />
  </symbol>
  <symbol id="i-language" viewBox="0 0 24 24" fill="none" stroke="currentColor" stroke-width="1.75" stroke-linecap="round" stroke-linejoin="round">
    <path stroke="none" d="M0 0h24v24H0z" fill="none" />
    <path d="M9 6.371c0 4.418 -2.239 6.629 -5 6.629" />
    <path d="M4 6.371h7" />
    <path d="M5 9c0 2.144 2.252 3.908 6 4" />
    <path d="M12 20l4 -9l4 9" />
    <path d="M19.1 18h-6.2" />
    <path d="M6.694 3l.793 .582" />
  </symbol>
  <symbol id="i-trash" viewBox="0 0 24 24" fill="none" stroke="currentColor" stroke-width="1.75" stroke-linecap="round" stroke-linejoin="round">
    <path stroke="none" d="M0 0h24v24H0z" fill="none" />
    <path d="M4 7l16 0" />
    <path d="M10 11l0 6" />
    <path d="M14 11l0 6" />
    <path d="M5 7l1 12a2 2 0 0 0 2 2h8a2 2 0 0 0 2 -2l1 -12" />
    <path d="M9 7v-3a1 1 0 0 1 1 -1h4a1 1 0 0 1 1 1v3" />
  </symbol>
  <symbol id="i-arrow-back-up" viewBox="0 0 24 24" fill="none" stroke="currentColor" stroke-width="1.75" stroke-linecap="round" stroke-linejoin="round">
    <path stroke="none" d="M0 0h24v24H0z" fill="none" />
    <path d="M9 14l-4 -4l4 -4" />
    <path d="M5 10h11a4 4 0 1 1 0 8h-1" />
  </symbol>
  <symbol id="i-settings" viewBox="0 0 24 24" fill="none" stroke="currentColor" stroke-width="1.75" stroke-linecap="round" stroke-linejoin="round">
    <path stroke="none" d="M0 0h24v24H0z" fill="none" />
    <path d="M10.325 4.317c.426 -1.756 2.924 -1.756 3.35 0a1.724 1.724 0 0 0 2.573 1.066c1.543 -.94 3.31 .826 2.37 2.37a1.724 1.724 0 0 0 1.065 2.572c1.756 .426 1.756 2.924 0 3.35a1.724 1.724 0 0 0 -1.066 2.573c.94 1.543 -.826 3.31 -2.37 2.37a1.724 1.724 0 0 0 -2.572 1.065c-.426 1.756 -2.924 1.756 -3.35 0a1.724 1.724 0 0 0 -2.573 -1.066c-1.543 .94 -3.31 -.826 -2.37 -2.37a1.724 1.724 0 0 0 -1.065 -2.572c-1.756 -.426 -1.756 -2.924 0 -3.35a1.724 1.724 0 0 0 1.066 -2.573c-.94 -1.543 .826 -3.31 2.37 -2.37c1 .608 2.296 .07 2.572 -1.065" />
    <path d="M9 12a3 3 0 1 0 6 0a3 3 0 0 0 -6 0" />
  </symbol>
  <symbol id="i-users" viewBox="0 0 24 24" fill="none" stroke="currentColor" stroke-width="1.75" stroke-linecap="round" stroke-linejoin="round">
    <path stroke="none" d="M0 0h24v24H0z" fill="none" />
    <path d="M5 7a4 4 0 1 0 8 0a4 4 0 1 0 -8 0" />
    <path d="M3 21v-2a4 4 0 0 1 4 -4h4a4 4 0 0 1 4 4v2" />
    <path d="M16 3.13a4 4 0 0 1 0 7.75" />
    <path d="M21 21v-2a4 4 0 0 0 -3 -3.85" />
  </symbol>
  <symbol id="i-file-text" viewBox="0 0 24 24" fill="none" stroke="currentColor" stroke-width="1.75" stroke-linecap="round" stroke-linejoin="round">
    <path stroke="none" d="M0 0h24v24H0z" fill="none" />
    <path d="M14 3v4a1 1 0 0 0 1 1h4" />
    <path d="M17 21h-10a2 2 0 0 1 -2 -2v-14a2 2 0 0 1 2 -2h7l5 5v11a2 2 0 0 1 -2 2" />
    <path d="M9 9l1 0" />
    <path d="M9 13l6 0" />
    <path d="M9 17l6 0" />
  </symbol>
  <symbol id="i-clipboard-check" viewBox="0 0 24 24" fill="none" stroke="currentColor" stroke-width="1.75" stroke-linecap="round" stroke-linejoin="round">
    <path stroke="none" d="M0 0h24v24H0z" fill="none" />
    <path d="M9 5h-2a2 2 0 0 0 -2 2v12a2 2 0 0 0 2 2h10a2 2 0 0 0 2 -2v-12a2 2 0 0 0 -2 -2h-2" />
    <path d="M9 5a2 2 0 0 1 2 -2h2a2 2 0 0 1 2 2a2 2 0 0 1 -2 2h-2a2 2 0 0 1 -2 -2" />
    <path d="M9 14l2 2l4 -4" />
  </symbol>
  <symbol id="i-arrows-diff" viewBox="0 0 24 24" fill="none" stroke="currentColor" stroke-width="1.75" stroke-linecap="round" stroke-linejoin="round">
    <path stroke="none" d="M0 0h24v24H0z" fill="none" />
    <path d="M11 16h10" />
    <path d="M11 16l4 4" />
    <path d="M11 16l4 -4" />
    <path d="M13 8h-10" />
    <path d="M13 8l-4 4" />
    <path d="M13 8l-4 -4" />
  </symbol>
  <symbol id="i-flag" viewBox="0 0 24 24" fill="none" stroke="currentColor" stroke-width="1.75" stroke-linecap="round" stroke-linejoin="round">
    <path stroke="none" d="M0 0h24v24H0z" fill="none" />
    <path d="M5 5a5 5 0 0 1 7 0a5 5 0 0 0 7 0v9a5 5 0 0 1 -7 0a5 5 0 0 0 -7 0v-9" />
    <path d="M5 21v-7" />
  </symbol>
  <symbol id="i-message-report" viewBox="0 0 24 24" fill="none" stroke="currentColor" stroke-width="1.75" stroke-linecap="round" stroke-linejoin="round">
    <path stroke="none" d="M0 0h24v24H0z" fill="none" />
    <path d="M18 4a3 3 0 0 1 3 3v8a3 3 0 0 1 -3 3h-5l-5 3v-3h-2a3 3 0 0 1 -3 -3v-8a3 3 0 0 1 3 -3h12" />
    <path d="M12 8v3" />
    <path d="M12 14v.01" />
  </symbol>
  <symbol id="i-home" viewBox="0 0 24 24" fill="none" stroke="currentColor" stroke-width="1.75" stroke-linecap="round" stroke-linejoin="round">
    <path stroke="none" d="M0 0h24v24H0z" fill="none" />
    <path d="M5 12l-2 0l9 -9l9 9l-2 0" />
    <path d="M5 12v7a2 2 0 0 0 2 2h10a2 2 0 0 0 2 -2v-7" />
    <path d="M9 21v-6a2 2 0 0 1 2 -2h2a2 2 0 0 1 2 2v6" />
  </symbol>
  <symbol id="i-activity" viewBox="0 0 24 24" fill="none" stroke="currentColor" stroke-width="1.75" stroke-linecap="round" stroke-linejoin="round">
    <path stroke="none" d="M0 0h24v24H0z" fill="none" />
    <path d="M3 12h4l3 8l4 -16l3 8h4" />
  </symbol>
  <symbol id="i-arrows-shuffle" viewBox="0 0 24 24" fill="none" stroke="currentColor" stroke-width="1.75" stroke-linecap="round" stroke-linejoin="round">
    <path stroke="none" d="M0 0h24v24H0z" fill="none" />
    <path d="M18 4l3 3l-3 3" />
    <path d="M18 20l3 -3l-3 -3" />
    <path d="M3 7h3a5 5 0 0 1 5 5a5 5 0 0 0 5 5h5" />
    <path d="M21 7h-5a4.978 4.978 0 0 0 -3 1m-4 8a4.984 4.984 0 0 1 -3 1h-3" />
  </symbol>
  <symbol id="i-list" viewBox="0 0 24 24" fill="none" stroke="currentColor" stroke-width="1.75" stroke-linecap="round" stroke-linejoin="round">
    <path stroke="none" d="M0 0h24v24H0z" fill="none" />
    <path d="M9 6l11 0" />
    <path d="M9 12l11 0" />
    <path d="M9 18l11 0" />
    <path d="M5 6l0 .01" />
    <path d="M5 12l0 .01" />
    <path d="M5 18l0 .01" />
  </symbol>
  <symbol id="i-chart-bar" viewBox="0 0 24 24" fill="none" stroke="currentColor" stroke-width="1.75" stroke-linecap="round" stroke-linejoin="round">
    <path stroke="none" d="M0 0h24v24H0z" fill="none" />
    <path d="M3 13a1 1 0 0 1 1 -1h4a1 1 0 0 1 1 1v6a1 1 0 0 1 -1 1h-4a1 1 0 0 1 -1 -1l0 -6" />
    <path d="M15 9a1 1 0 0 1 1 -1h4a1 1 0 0 1 1 1v10a1 1 0 0 1 -1 1h-4a1 1 0 0 1 -1 -1l0 -10" />
    <path d="M9 5a1 1 0 0 1 1 -1h4a1 1 0 0 1 1 1v14a1 1 0 0 1 -1 1h-4a1 1 0 0 1 -1 -1l0 -14" />
    <path d="M4 20h14" />
  </symbol>
  <symbol id="i-file-plus" viewBox="0 0 24 24" fill="none" stroke="currentColor" stroke-width="1.75" stroke-linecap="round" stroke-linejoin="round">
    <path stroke="none" d="M0 0h24v24H0z" fill="none" />
    <path d="M14 3v4a1 1 0 0 0 1 1h4" />
    <path d="M17 21h-10a2 2 0 0 1 -2 -2v-14a2 2 0 0 1 2 -2h7l5 5v11a2 2 0 0 1 -2 2" />
    <path d="M12 11l0 6" />
    <path d="M9 14l6 0" />
  </symbol>
  <symbol id="i-upload" viewBox="0 0 24 24" fill="none" stroke="currentColor" stroke-width="1.75" stroke-linecap="round" stroke-linejoin="round">
    <path stroke="none" d="M0 0h24v24H0z" fill="none" />
    <path d="M4 17v2a2 2 0 0 0 2 2h12a2 2 0 0 0 2 -2v-2" />
    <path d="M7 9l5 -5l5 5" />
    <path d="M12 4l0 12" />
  </symbol>
  <symbol id="i-help-circle" viewBox="0 0 24 24" fill="none" stroke="currentColor" stroke-width="1.75" stroke-linecap="round" stroke-linejoin="round">
    <path stroke="none" d="M0 0h24v24H0z" fill="none" />
    <path d="M3 12a9 9 0 1 0 18 0a9 9 0 0 0 -18 0" />
    <path d="M12 16v.01" />
    <path d="M12 13a2 2 0 0 0 .914 -3.782a1.98 1.98 0 0 0 -2.414 .483" />
  </symbol>
  <symbol id="i-link" viewBox="0 0 24 24" fill="none" stroke="currentColor" stroke-width="1.75" stroke-linecap="round" stroke-linejoin="round">
    <path stroke="none" d="M0 0h24v24H0z" fill="none" />
    <path d="M9 15l6 -6" />
    <path d="M11 6l.463 -.536a5 5 0 0 1 7.071 7.072l-.534 .464" />
    <path d="M13 18l-.397 .534a5.068 5.068 0 0 1 -7.127 0a4.972 4.972 0 0 1 0 -7.071l.524 -.463" />
  </symbol>
  <symbol id="i-code" viewBox="0 0 24 24" fill="none" stroke="currentColor" stroke-width="1.75" stroke-linecap="round" stroke-linejoin="round">
    <path stroke="none" d="M0 0h24v24H0z" fill="none" />
    <path d="M7 8l-4 4l4 4" />
    <path d="M17 8l4 4l-4 4" />
    <path d="M14 4l-4 16" />
  </symbol>
  <symbol id="i-copy" viewBox="0 0 24 24" fill="none" stroke="currentColor" stroke-width="1.75" stroke-linecap="round" stroke-linejoin="round">
    <path stroke="none" d="M0 0h24v24H0z" fill="none" />
    <path d="M7 9.667a2.667 2.667 0 0 1 2.667 -2.667h8.666a2.667 2.667 0 0 1 2.667 2.667v8.666a2.667 2.667 0 0 1 -2.667 2.667h-8.666a2.667 2.667 0 0 1 -2.667 -2.667l0 -8.666" />
    <path d="M4.012 16.737a2.005 2.005 0 0 1 -1.012 -1.737v-10c0 -1.1 .9 -2 2 -2h10c.75 0 1.158 .385 1.5 1" />
  </symbol>
  <symbol id="i-message-circle" viewBox="0 0 24 24" fill="none" stroke="currentColor" stroke-width="1.75" stroke-linecap="round" stroke-linejoin="round">
    <path stroke="none" d="M0 0h24v24H0z" fill="none" />
    <path d="M3 20l1.3 -3.9c-2.324 -3.437 -1.426 -7.872 2.1 -10.374c3.526 -2.501 8.59 -2.296 11.845 .48c3.255 2.777 3.695 7.266 1.029 10.501c-2.666 3.235 -7.615 4.215 -11.574 2.293l-4.7 1" />
  </symbol>
  <symbol id="i-template" viewBox="0 0 24 24" fill="none" stroke="currentColor" stroke-width="1.75" stroke-linecap="round" stroke-linejoin="round">
    <path stroke="none" d="M0 0h24v24H0z" fill="none" />
    <path d="M4 5a1 1 0 0 1 1 -1h14a1 1 0 0 1 1 1v2a1 1 0 0 1 -1 1h-14a1 1 0 0 1 -1 -1l0 -2" />
    <path d="M4 13a1 1 0 0 1 1 -1h4a1 1 0 0 1 1 1v6a1 1 0 0 1 -1 1h-4a1 1 0 0 1 -1 -1l0 -6" />
    <path d="M14 12l6 0" />
    <path d="M14 16l6 0" />
    <path d="M14 20l6 0" />
  </symbol>
  <symbol id="i-id-badge-2" viewBox="0 0 24 24" fill="none" stroke="currentColor" stroke-width="1.75" stroke-linecap="round" stroke-linejoin="round">
    <path stroke="none" d="M0 0h24v24H0z" fill="none" />
    <path d="M7 12h3v4h-3l0 -4" />
    <path d="M10 6h-6a1 1 0 0 0 -1 1v12a1 1 0 0 0 1 1h16a1 1 0 0 0 1 -1v-12a1 1 0 0 0 -1 -1h-6" />
    <path d="M10 4a1 1 0 0 1 1 -1h2a1 1 0 0 1 1 1v3a1 1 0 0 1 -1 1h-2a1 1 0 0 1 -1 -1l0 -3" />
    <path d="M14 16h2" />
    <path d="M14 12h4" />
  </symbol>
  <symbol id="i-external-link" viewBox="0 0 24 24" fill="none" stroke="currentColor" stroke-width="1.75" stroke-linecap="round" stroke-linejoin="round">
    <path stroke="none" d="M0 0h24v24H0z" fill="none" />
    <path d="M12 6h-6a2 2 0 0 0 -2 2v10a2 2 0 0 0 2 2h10a2 2 0 0 0 2 -2v-6" />
    <path d="M11 13l9 -9" />
    <path d="M15 4h5v5" />
  </symbol>
  <symbol id="i-chevron-left" viewBox="0 0 24 24" fill="none" stroke="currentColor" stroke-width="1.75" stroke-linecap="round" stroke-linejoin="round">
    <path stroke="none" d="M0 0h24v24H0z" fill="none" />
    <path d="M15 6l-6 6l6 6" />
  </symbol>
  <symbol id="i-chevron-right" viewBox="0 0 24 24" fill="none" stroke="currentColor" stroke-width="1.75" stroke-linecap="round" stroke-linejoin="round">
    <path stroke="none" d="M0 0h24v24H0z" fill="none" />
    <path d="M9 6l6 6l-6 6" />
  </symbol>
  <symbol id="i-palette" viewBox="0 0 24 24" fill="none" stroke="currentColor" stroke-width="1.75" stroke-linecap="round" stroke-linejoin="round">
    <path stroke="none" d="M0 0h24v24H0z" fill="none" />
    <path d="M12 21a9 9 0 0 1 0 -18c4.97 0 9 3.582 9 8c0 1.06 -.474 2.078 -1.318 2.828c-.844 .75 -1.989 1.172 -3.182 1.172h-2.5a2 2 0 0 0 -1 3.75a1.3 1.3 0 0 1 -1 2.25" />
    <path d="M7.5 10.5a1 1 0 1 0 2 0a1 1 0 1 0 -2 0" />
    <path d="M11.5 7.5a1 1 0 1 0 2 0a1 1 0 1 0 -2 0" />
    <path d="M15.5 10.5a1 1 0 1 0 2 0a1 1 0 1 0 -2 0" />
  </symbol>
  <symbol id="i-book" viewBox="0 0 24 24" fill="none" stroke="currentColor" stroke-width="1.75" stroke-linecap="round" stroke-linejoin="round">
    <path stroke="none" d="M0 0h24v24H0z" fill="none" />
    <path d="M3 19a9 9 0 0 1 9 0a9 9 0 0 1 9 0" />
    <path d="M3 6a9 9 0 0 1 9 0a9 9 0 0 1 9 0" />
    <path d="M3 6l0 13" />
    <path d="M12 6l0 13" />
    <path d="M21 6l0 13" />
  </symbol>
  <symbol id="i-calendar" viewBox="0 0 24 24" fill="none" stroke="currentColor" stroke-width="1.75" stroke-linecap="round" stroke-linejoin="round">
    <path stroke="none" d="M0 0h24v24H0z" fill="none" />
    <path d="M4 7a2 2 0 0 1 2 -2h12a2 2 0 0 1 2 2v12a2 2 0 0 1 -2 2h-12a2 2 0 0 1 -2 -2v-12" />
    <path d="M16 3v4" />
    <path d="M8 3v4" />
    <path d="M4 11h16" />
    <path d="M11 15h1" />
    <path d="M12 15v3" />
  </symbol>
  <symbol id="i-movie" viewBox="0 0 24 24" fill="none" stroke="currentColor" stroke-width="1.75" stroke-linecap="round" stroke-linejoin="round">
    <path stroke="none" d="M0 0h24v24H0z" fill="none" />
    <path d="M4 6a2 2 0 0 1 2 -2h12a2 2 0 0 1 2 2v12a2 2 0 0 1 -2 2h-12a2 2 0 0 1 -2 -2l0 -12" />
    <path d="M8 4l0 16" />
    <path d="M16 4l0 16" />
    <path d="M4 8l4 0" />
    <path d="M4 16l4 0" />
    <path d="M4 12l16 0" />
    <path d="M16 8l4 0" />
    <path d="M16 16l4 0" />
  </symbol>
  <symbol id="i-users-group" viewBox="0 0 24 24" fill="none" stroke="currentColor" stroke-width="1.75" stroke-linecap="round" stroke-linejoin="round">
    <path stroke="none" d="M0 0h24v24H0z" fill="none" />
    <path d="M10 13a2 2 0 1 0 4 0a2 2 0 0 0 -4 0" />
    <path d="M8 21v-1a2 2 0 0 1 2 -2h4a2 2 0 0 1 2 2v1" />
    <path d="M15 5a2 2 0 1 0 4 0a2 2 0 0 0 -4 0" />
    <path d="M17 10h2a2 2 0 0 1 2 2v1" />
    <path d="M5 5a2 2 0 1 0 4 0a2 2 0 0 0 -4 0" />
    <path d="M3 13v-1a2 2 0 0 1 2 -2h2" />
  </symbol>
  <symbol id="i-sparkles" viewBox="0 0 24 24" fill="none" stroke="currentColor" stroke-width="1.75" stroke-linecap="round" stroke-linejoin="round">
    <path stroke="none" d="M0 0h24v24H0z" fill="none" />
    <path d="M16 18a2 2 0 0 1 2 2a2 2 0 0 1 2 -2a2 2 0 0 1 -2 -2a2 2 0 0 1 -2 2m0 -12a2 2 0 0 1 2 2a2 2 0 0 1 2 -2a2 2 0 0 1 -2 -2a2 2 0 0 1 -2 2m-7 12a6 6 0 0 1 6 -6a6 6 0 0 1 -6 -6a6 6 0 0 1 -6 6a6 6 0 0 1 6 6" />
  </symbol>
  <symbol id="i-heart" viewBox="0 0 24 24" fill="none" stroke="currentColor" stroke-width="1.75" stroke-linecap="round" stroke-linejoin="round">
    <path stroke="none" d="M0 0h24v24H0z" fill="none" />
    <path d="M19.5 12.572l-7.5 7.428l-7.5 -7.428a5 5 0 1 1 7.5 -6.566a5 5 0 1 1 7.5 6.572" />
  </symbol>
  <symbol id="i-file-info" viewBox="0 0 24 24" fill="none" stroke="currentColor" stroke-width="1.75" stroke-linecap="round" stroke-linejoin="round">
    <path stroke="none" d="M0 0h24v24H0z" fill="none" />
    <path d="M14 3v4a1 1 0 0 0 1 1h4" />
    <path d="M17 21h-10a2 2 0 0 1 -2 -2v-14a2 2 0 0 1 2 -2h7l5 5v11a2 2 0 0 1 -2 2" />
    <path d="M11 14h1v4h1" />
    <path d="M12 11h.01" />
  </symbol>
  <symbol id="i-list-details" viewBox="0 0 24 24" fill="none" stroke="currentColor" stroke-width="1.75" stroke-linecap="round" stroke-linejoin="round">
    <path stroke="none" d="M0 0h24v24H0z" fill="none" />
    <path d="M13 5h8" />
    <path d="M13 9h5" />
    <path d="M13 15h8" />
    <path d="M13 19h5" />
    <path d="M3 5a1 1 0 0 1 1 -1h4a1 1 0 0 1 1 1v4a1 1 0 0 1 -1 1h-4a1 1 0 0 1 -1 -1l0 -4" />
    <path d="M3 15a1 1 0 0 1 1 -1h4a1 1 0 0 1 1 1v4a1 1 0 0 1 -1 1h-4a1 1 0 0 1 -1 -1l0 -4" />
  </symbol>
  <symbol id="i-layout-grid" viewBox="0 0 24 24" fill="none" stroke="currentColor" stroke-width="1.75" stroke-linecap="round" stroke-linejoin="round">
    <path stroke="none" d="M0 0h24v24H0z" fill="none" />
    <path d="M4 5a1 1 0 0 1 1 -1h4a1 1 0 0 1 1 1v4a1 1 0 0 1 -1 1h-4a1 1 0 0 1 -1 -1l0 -4" />
    <path d="M14 5a1 1 0 0 1 1 -1h4a1 1 0 0 1 1 1v4a1 1 0 0 1 -1 1h-4a1 1 0 0 1 -1 -1l0 -4" />
    <path d="M4 15a1 1 0 0 1 1 -1h4a1 1 0 0 1 1 1v4a1 1 0 0 1 -1 1h-4a1 1 0 0 1 -1 -1l0 -4" />
    <path d="M14 15a1 1 0 0 1 1 -1h4a1 1 0 0 1 1 1v4a1 1 0 0 1 -1 1h-4a1 1 0 0 1 -1 -1l0 -4" />
  </symbol>
</svg>
